<svg xmlns="http://www.w3.org/2000/svg" xmlns:xlink="http://www.w3.org/1999/xlink" width="110.567" height="120.66" viewBox="0 0 110.567 120.66">
  <defs>
    <clipPath id="clip-path">
      <rect id="Rectangle_379" data-name="Rectangle 379" width="76.567" height="65.728" fill="#2c292a" stroke="#fdf6e7" stroke-width="1"/>
    </clipPath>
    <clipPath id="clip-path-3">
      <rect id="Rectangle_384" data-name="Rectangle 384" width="10.269" height="9.175" fill="#2c292a" stroke="#fdf6e7" stroke-width="1"/>
    </clipPath>
  </defs>
  <g id="Group_2294" data-name="Group 2294" transform="translate(-713.218 -910.302)">
    <g id="Group_856" data-name="Group 856" transform="translate(713.219 910.302)">
      <g id="Group_282" data-name="Group 282" clip-path="url(#clip-path)">
        <path id="Path_191" data-name="Path 191" d="M738.931,316.475l.021-.037.013-.025c-.182.289-.1.172-.035.062" transform="translate(-666.963 -285.626)" fill="#2c292a" stroke="#fdf6e7" stroke-width="1"/>
        <path id="Path_192" data-name="Path 192" d="M255.986,464.4l.055.014h.005l.04.009c-.371-.105-.227-.057-.1-.024" transform="translate(-230.954 -419.177)" fill="#2c292a" stroke="#fdf6e7" stroke-width="1"/>
        <path id="Path_193" data-name="Path 193" d="M98.1,46.472a15.227,15.227,0,0,0-1-2.9,18.924,18.924,0,0,0-1.628-2.711A28.756,28.756,0,0,0,87.213,33.5a47.269,47.269,0,0,0-9.863-4.75,49.76,49.76,0,0,0-44.522,6.33C25.794,40.091,22.6,50.22,25.221,58.38,26.7,63,29.86,66.4,32.485,70.331c2.533,3.792,5.033,7.606,7.568,11.4,1.56,2.333,3.1,4.683,4.7,6.987a1.6,1.6,0,0,0,1.9.418,1.627,1.627,0,0,0,.894-1.715,4.888,4.888,0,0,0-.227-.835l-.124-.257-.02-.042c-.086-.33-.136-.675-.2-1.009l-.436-2.167q-.429-2.131-.844-4.264c-.263-1.347-.561-2.693-.761-4.052-.044-.3-.082-.607-.11-.912-.013-.146-.024-.293-.032-.44.005.046,0-.324,0-.366,0-.3.027-.6.046-.9a43.19,43.19,0,0,0,4.72.87,53.724,53.724,0,0,0,23.026-2.472,86.151,86.151,0,0,0,11.237-4.539,45.185,45.185,0,0,0,8.95-5.3,17.241,17.241,0,0,0,3.382-3.569q.3-.435.56-.894c.1-.183.194-.378.3-.559l-.045.1c.023-.049.047-.1.071-.144l.019-.038c.116-.226.243-.446.351-.675a12.172,12.172,0,0,0,.872-2.721,13.053,13.053,0,0,0-.176-5.751M94.81,49.729c.011.125.018.25.028.376.028.358,0-.108,0-.117.077.091,0,.626,0,.756a10.64,10.64,0,0,1-.124,1.25c-.023.145-.043.3-.074.445-.01.026-.02.058-.027.081-.04.139-.076.278-.119.416q-.149.485-.345.954c-.061.146-.119.295-.186.438l-.007.013.012-.018c-.009.014-.017.029-.025.044l-.021.037c-.037.065-.072.132-.109.2a12.815,12.815,0,0,1-1.282,1.815c-.06.071-.271.4-.351.4.009,0,.281-.3.068-.075-.075.078-.148.156-.224.233q-.379.387-.781.749a20.058,20.058,0,0,1-1.8,1.441q-.452.322-.916.626c-.062.04-.126.079-.187.121l.078-.055c-.037.026-.076.052-.1.065q-.259.162-.522.32c-.649.39-1.31.76-1.978,1.115a83.384,83.384,0,0,1-10.287,4.628q-1.39.513-2.8.972l-.268.087-.14.045c-.21.067-.422.13-.633.194q-.707.213-1.418.409c-1.849.512-3.718.951-5.605,1.292a52.787,52.787,0,0,1-5.774.723c-.4.027-.8.058-1.2.07l-.142,0-.291.008q-.32.008-.641.011-1.226.012-2.451-.044a40.84,40.84,0,0,1-4.771-.5q-1.164-.192-2.317-.45l.04.011-.086-.022-.055-.014-.143-.033q-.283-.069-.566-.142-.593-.153-1.181-.325c-.614-.179-2.661-1.351-3.254-.985-.772.476-.076,2.859.1,3.63.569,2.517,1.58,4.9,2.116,7.429.181.854,1,3.83-.579,3.64-.876-.106-2.322-2.977-2.811-3.69Q39.2,76.183,37.846,74c-4-6.447-8.3-13.73-9.708-21.252a13.667,13.667,0,0,1,.465-7.462c1.481-3.793,5.115-6.561,8.531-8.546a49.993,49.993,0,0,1,4.974-2.529,54.191,54.191,0,0,1,5.223-1.976c.056-.018.122-.045.186-.064.034-.007.066-.015.089-.022q.326-.1.653-.194.687-.2,1.379-.378,1.351-.349,2.72-.622a48.62,48.62,0,0,1,5.523-.774q.678-.055,1.358-.091c.152-.008.318-.029.478-.034a1.254,1.254,0,0,0,.146.007l.476-.011q1.3-.024,2.605.025a46.606,46.606,0,0,1,5.086.473q1.249.186,2.486.438c.4.082.8.189,1.2.262-.611-.11.07.019.215.055q.358.089.716.184a46.255,46.255,0,0,1,9.4,3.623l.194.1.007,0c.18.1.36.2.54.3q.565.314,1.12.645,1.084.645,2.13,1.352c.727.491,1.439,1,2.128,1.546q.47.368.924.755.215.183.426.37a2.681,2.681,0,0,0,.262.24l.008.007a21.724,21.724,0,0,1,1.793,1.914q.4.481.762.987.164.228.32.461a2.5,2.5,0,0,0,.172.261l-.024-.027.01.016a17.5,17.5,0,0,1,1.2,2.388q.121.294.229.593.042.116.082.234c-.037.083.147.519.169.61q.084.339.149.682c.075.393.132.788.168,1.186" transform="translate(-21.947 -23.554)" fill="#2c292a" stroke="#fdf6e7" stroke-width="1"/>
        <path id="Path_194" data-name="Path 194" d="M683.114,372.471c.088-.061.169-.119,0,0" transform="translate(-616.646 -336.167)" fill="#2c292a" stroke="#fdf6e7" stroke-width="1"/>
        <path id="Path_195" data-name="Path 195" d="M726.827,208.6c-.088-.135-.3-.343,0,0" transform="translate(-655.966 -188.138)" fill="#2c292a" stroke="#fdf6e7" stroke-width="1"/>
        <path id="Path_196" data-name="Path 196" d="M496.465,13.943a11.768,11.768,0,0,0-2.138-2.284,26.629,26.629,0,0,0-2.4-1.907,42.725,42.725,0,0,0-5.427-3.2A41.645,41.645,0,0,0,474.741,2.73c-1.145-.19-2.292-.293-3.448-.373-.585-.041-1.182-.07-1.769-.053a5.1,5.1,0,0,0-1.6.2c-.072.025-.054.128.006.153a6.755,6.755,0,0,0,1.435.321c.489.094.995.15,1.489.219.992.138,1.981.321,2.963.521a50.387,50.387,0,0,1,5.818,1.539,46.1,46.1,0,0,1,10.823,5.245c.933.615,1.852,1.256,2.761,1.905a29.628,29.628,0,0,0,2.845,1.967.3.3,0,0,0,.4-.436" transform="translate(-422.352 -2.075)" fill="#2c292a" stroke="#fdf6e7" stroke-width="1"/>
        <path id="Path_197" data-name="Path 197" d="M354.454,461.6a13.375,13.375,0,0,0-1.513.642c-.519.241-1.035.486-1.551.731-.992.47-2.008.879-3.014,1.318-2.024.883-4.072,1.751-6.143,2.521A37.835,37.835,0,0,1,330.2,469.4a30.169,30.169,0,0,1-3.432-.083c-.568-.049-1.136-.108-1.7-.166s-1.122-.172-1.695-.175c-.194,0-.359.278-.148.4a9.357,9.357,0,0,0,2.923.888,21.557,21.557,0,0,0,3.145.318,28.914,28.914,0,0,0,6.232-.5,43.828,43.828,0,0,0,12.47-4.41c1.139-.606,2.24-1.281,3.368-1.908a25.686,25.686,0,0,0,3.241-1.922c.137-.105-.01-.279-.15-.234" transform="translate(-291.686 -416.679)" fill="#2c292a" stroke="#fdf6e7" stroke-width="1"/>
        <path id="Path_198" data-name="Path 198" d="M31.553.13A18.253,18.253,0,0,0,24.228.8,35.115,35.115,0,0,0,17.29,3.633,53.2,53.2,0,0,0,5.2,12.621c-1.005.986-1.95,2.018-2.861,3.091a17.426,17.426,0,0,0-2.326,3.4c-.062.125.131.265.227.161.807-.878,1.537-1.829,2.383-2.671s1.688-1.72,2.578-2.538c1.8-1.66,3.707-3.221,5.66-4.7A43.7,43.7,0,0,1,23.624,2.373,32.542,32.542,0,0,1,27.5,1.35c1.352-.259,2.708-.46,4.07-.658a.285.285,0,0,0-.02-.562" transform="translate(0 0)" fill="#2c292a" stroke="#fdf6e7" stroke-width="1"/>
      </g>
    </g>
    <g id="Group_857" data-name="Group 857" transform="translate(747.219 965.235)">
      <g id="Group_282-2" data-name="Group 282" transform="translate(0)" clip-path="url(#clip-path)">
        <path id="Path_191-2" data-name="Path 191" d="M738.89,316.475l-.021-.037-.013-.025c.182.289.1.172.035.062" transform="translate(-734.291 -285.626)" fill="#2c292a" stroke="#fdf6e7" stroke-width="1"/>
        <path id="Path_192-2" data-name="Path 192" d="M255.949,464.4l-.055.014h-.005l-.04.009c.371-.105.227-.057.1-.024" transform="translate(-204.414 -419.177)" fill="#2c292a" stroke="#fdf6e7" stroke-width="1"/>
        <path id="Path_193-2" data-name="Path 193" d="M24.73,46.472a15.227,15.227,0,0,1,1-2.9,18.924,18.924,0,0,1,1.628-2.711A28.756,28.756,0,0,1,35.612,33.5a47.269,47.269,0,0,1,9.863-4.75A49.76,49.76,0,0,1,90,35.079c7.035,5.012,10.226,15.141,7.608,23.3C96.122,63,92.965,66.4,90.34,70.331c-2.533,3.792-5.033,7.606-7.568,11.4-1.56,2.333-3.1,4.683-4.7,6.987a1.6,1.6,0,0,1-1.9.418,1.627,1.627,0,0,1-.894-1.715,4.889,4.889,0,0,1,.227-.835l.124-.257.02-.042c.086-.33.136-.675.2-1.009l.436-2.167q.429-2.131.844-4.264c.263-1.347.561-2.693.761-4.052.044-.3.082-.607.11-.912.013-.146.024-.293.032-.44-.005.046,0-.324,0-.366,0-.3-.027-.6-.046-.9a43.19,43.19,0,0,1-4.72.87,53.724,53.724,0,0,1-23.026-2.472,86.151,86.151,0,0,1-11.237-4.539,45.186,45.186,0,0,1-8.95-5.3,17.241,17.241,0,0,1-3.382-3.569q-.3-.435-.56-.894c-.1-.183-.194-.378-.3-.559l.045.1c-.023-.049-.047-.1-.071-.144l-.019-.038c-.116-.226-.243-.446-.351-.675a12.172,12.172,0,0,1-.872-2.721,13.053,13.053,0,0,1,.176-5.751m3.286,3.258c-.011.125-.018.25-.028.376-.028.358,0-.108,0-.117-.077.091,0,.626,0,.756a10.64,10.64,0,0,0,.124,1.25c.023.145.043.3.074.445.01.026.02.058.027.081.04.139.076.278.119.416q.149.485.345.954c.061.146.119.295.186.438l.007.013-.012-.018c.009.014.017.029.025.044l.021.037c.037.065.072.132.109.2A12.815,12.815,0,0,0,30.3,56.415c.06.071.271.4.351.4-.009,0-.281-.3-.068-.075.075.078.148.156.224.233q.379.387.781.749a20.058,20.058,0,0,0,1.8,1.441q.452.322.916.626c.062.04.126.079.187.121l-.078-.055c.037.026.076.052.1.065q.259.162.522.32c.649.39,1.31.76,1.978,1.115a83.384,83.384,0,0,0,10.287,4.628q1.39.513,2.8.972l.268.087.14.045c.21.067.422.13.633.194q.707.213,1.418.409c1.849.512,3.718.951,5.605,1.292a52.787,52.787,0,0,0,5.774.723c.4.027.8.058,1.2.07l.142,0,.291.008q.32.008.641.011,1.226.012,2.451-.044a40.84,40.84,0,0,0,4.771-.5q1.164-.192,2.317-.45l-.04.011.086-.022.055-.014.143-.033q.283-.069.566-.142.593-.153,1.181-.325c.614-.179,2.661-1.351,3.254-.985.772.476.076,2.859-.1,3.63-.569,2.517-1.58,4.9-2.116,7.429-.181.854-1,3.83.579,3.64.876-.106,2.322-2.977,2.811-3.69q1.455-2.119,2.812-4.3c4-6.447,8.3-13.73,9.708-21.252a13.667,13.667,0,0,0-.465-7.462c-1.481-3.793-5.115-6.561-8.531-8.546a49.993,49.993,0,0,0-4.974-2.529A54.191,54.191,0,0,0,75.5,32.234c-.056-.018-.122-.045-.186-.064-.034-.007-.066-.015-.089-.022q-.326-.1-.653-.194-.687-.2-1.379-.378-1.351-.349-2.72-.622a48.619,48.619,0,0,0-5.523-.774q-.678-.055-1.358-.091c-.152-.008-.318-.029-.478-.034a1.254,1.254,0,0,1-.146.007l-.476-.011q-1.3-.024-2.605.025a46.606,46.606,0,0,0-5.086.473q-1.249.186-2.486.438c-.4.082-.8.189-1.2.262.611-.11-.07.019-.215.055q-.358.089-.716.184a46.255,46.255,0,0,0-9.4,3.623l-.194.1-.007,0c-.18.1-.36.2-.54.3q-.565.314-1.12.645-1.084.645-2.13,1.352c-.727.491-1.439,1-2.128,1.546q-.47.368-.924.755-.215.183-.426.37a2.681,2.681,0,0,1-.262.24l-.008.007a21.724,21.724,0,0,0-1.793,1.914q-.4.481-.762.987-.164.228-.32.461a2.5,2.5,0,0,1-.172.261l.024-.027-.01.016a17.5,17.5,0,0,0-1.2,2.388q-.121.294-.229.593-.042.116-.082.234c.037.083-.147.519-.169.61q-.084.339-.149.682c-.075.393-.132.788-.168,1.186" transform="translate(-24.312 -23.554)" fill="#2c292a" stroke="#fdf6e7" stroke-width="1"/>
        <path id="Path_194-2" data-name="Path 194" d="M683.213,372.471c-.088-.061-.169-.119,0,0" transform="translate(-673.114 -336.167)" fill="#2c292a" stroke="#fdf6e7" stroke-width="1"/>
        <path id="Path_195-2" data-name="Path 195" d="M726.672,208.6c.088-.135.3-.343,0,0" transform="translate(-720.967 -188.138)" fill="#2c292a" stroke="#fdf6e7" stroke-width="1"/>
        <path id="Path_196-2" data-name="Path 196" d="M467.938,13.943a11.768,11.768,0,0,1,2.138-2.284,26.629,26.629,0,0,1,2.4-1.907,42.725,42.725,0,0,1,5.427-3.2A41.645,41.645,0,0,1,489.662,2.73c1.145-.19,2.292-.293,3.448-.373.585-.041,1.182-.07,1.769-.053a5.1,5.1,0,0,1,1.6.2c.072.025.054.128-.006.153a6.755,6.755,0,0,1-1.435.321c-.489.094-.995.15-1.489.219-.992.138-1.981.321-2.963.521a50.387,50.387,0,0,0-5.818,1.539,46.1,46.1,0,0,0-10.823,5.245c-.933.615-1.852,1.256-2.761,1.905a29.628,29.628,0,0,1-2.845,1.967.3.3,0,0,1-.4-.436" transform="translate(-465.485 -2.075)" fill="#2c292a" stroke="#fdf6e7" stroke-width="1"/>
        <path id="Path_197-2" data-name="Path 197" d="M323.33,461.6a13.375,13.375,0,0,1,1.513.642c.519.241,1.035.486,1.551.731.992.47,2.008.879,3.014,1.318,2.024.883,4.072,1.751,6.143,2.521a37.835,37.835,0,0,0,12.031,2.584,30.169,30.169,0,0,0,3.432-.083c.568-.049,1.136-.108,1.7-.166s1.122-.172,1.695-.175c.194,0,.359.278.148.4a9.357,9.357,0,0,1-2.923.888,21.557,21.557,0,0,1-3.145.318,28.914,28.914,0,0,1-6.232-.5,43.828,43.828,0,0,1-12.47-4.41c-1.139-.606-2.24-1.281-3.368-1.908a25.686,25.686,0,0,1-3.241-1.922c-.137-.105.01-.279.15-.234" transform="translate(-309.533 -416.679)" fill="#2c292a" stroke="#fdf6e7" stroke-width="1"/>
        <path id="Path_198-2" data-name="Path 198" d="M.248.13A18.253,18.253,0,0,1,7.574.8a35.115,35.115,0,0,1,6.938,2.837A53.2,53.2,0,0,1,26.6,12.621c1.005.986,1.95,2.018,2.861,3.091a17.426,17.426,0,0,1,2.326,3.4c.062.125-.131.265-.227.161-.807-.878-1.537-1.829-2.383-2.671s-1.688-1.72-2.578-2.538c-1.8-1.66-3.707-3.221-5.66-4.7A43.7,43.7,0,0,0,8.177,2.373,32.542,32.542,0,0,0,4.3,1.35C2.946,1.091,1.591.89.228.692A.285.285,0,0,1,.248.13" transform="translate(44.765 0)" fill="#2c292a" stroke="#fdf6e7" stroke-width="1"/>
      </g>
    </g>
    <g id="Group_859" data-name="Group 859" transform="translate(728.264 928.207)">
      <g id="Group_300" data-name="Group 300" transform="translate(0 0)" clip-path="url(#clip-path-3)">
        <path id="Path_260" data-name="Path 260" d="M2.472,1.007A4.635,4.635,0,0,0,.928,2.458C-.246,4.137-.452,6.393,1.167,7.867,4.034,10.48,9.7,9.007,10.232,4.962S5.394-1.467,2.472,1.007" transform="translate(0 0)" fill="#2c292a" stroke="#fdf6e7" stroke-width="1"/>
      </g>
    </g>
    <g id="Group_860" data-name="Group 860" transform="translate(763.218 986.207)">
      <g id="Group_300-2" data-name="Group 300" transform="translate(0 0)" clip-path="url(#clip-path-3)">
        <path id="Path_260-2" data-name="Path 260" d="M2.472,1.007A4.635,4.635,0,0,0,.928,2.458C-.246,4.137-.452,6.393,1.167,7.867,4.034,10.48,9.7,9.007,10.232,4.962S5.394-1.467,2.472,1.007" transform="translate(0 0)" fill="#2c292a" stroke="#fdf6e7" stroke-width="1"/>
      </g>
    </g>
    <g id="Group_861" data-name="Group 861" transform="translate(744.084 928.207)">
      <g id="Group_300-3" data-name="Group 300" transform="translate(0 0)" clip-path="url(#clip-path-3)">
        <path id="Path_260-3" data-name="Path 260" d="M2.472,1.007A4.635,4.635,0,0,0,.928,2.458C-.246,4.137-.452,6.393,1.167,7.867,4.034,10.48,9.7,9.007,10.232,4.962S5.394-1.467,2.472,1.007" transform="translate(0 0)" fill="#2c292a" stroke="#fdf6e7" stroke-width="1"/>
      </g>
    </g>
    <g id="Group_862" data-name="Group 862" transform="translate(779.038 986.207)">
      <g id="Group_300-4" data-name="Group 300" transform="translate(0 0)" clip-path="url(#clip-path-3)">
        <path id="Path_260-4" data-name="Path 260" d="M2.472,1.007A4.635,4.635,0,0,0,.928,2.458C-.246,4.137-.452,6.393,1.167,7.867,4.034,10.48,9.7,9.007,10.232,4.962S5.394-1.467,2.472,1.007" transform="translate(0 0)" fill="#2c292a" stroke="#fdf6e7" stroke-width="1"/>
      </g>
    </g>
    <g id="Group_863" data-name="Group 863" transform="translate(758.084 928.207)">
      <g id="Group_300-5" data-name="Group 300" transform="translate(0 0)" clip-path="url(#clip-path-3)">
        <path id="Path_260-5" data-name="Path 260" d="M2.472,1.007A4.635,4.635,0,0,0,.928,2.458C-.246,4.137-.452,6.393,1.167,7.867,4.034,10.48,9.7,9.007,10.232,4.962S5.394-1.467,2.472,1.007" transform="translate(0 0)" fill="#2c292a" stroke="#fdf6e7" stroke-width="1"/>
      </g>
    </g>
    <g id="Group_864" data-name="Group 864" transform="translate(793.038 986.207)">
      <g id="Group_300-6" data-name="Group 300" transform="translate(0 0)" clip-path="url(#clip-path-3)">
        <path id="Path_260-6" data-name="Path 260" d="M2.472,1.007A4.635,4.635,0,0,0,.928,2.458C-.246,4.137-.452,6.393,1.167,7.867,4.034,10.48,9.7,9.007,10.232,4.962S5.394-1.467,2.472,1.007" transform="translate(0 0)" fill="#2c292a" stroke="#fdf6e7" stroke-width="1"/>
      </g>
    </g>
  </g>
</svg>
